<!DOCTYPE svg PUBLIC "-//W3C//DTD SVG 1.1//EN" "http://www.w3.org/Graphics/SVG/1.1/DTD/svg11.dtd">
<!-- Uploaded to: SVG Repo, www.svgrepo.com, Transformed by: SVG Repo Mixer Tools -->
<svg width="75px" height="75px" viewBox="0 0 32 32" id="baseball_Light" data-name="baseball/Light" xmlns="http://www.w3.org/2000/svg" fill="#000000">
<g id="SVGRepo_bgCarrier" stroke-width="0"/>
<g id="SVGRepo_tracerCarrier" stroke-linecap="round" stroke-linejoin="round"/>
<g id="SVGRepo_iconCarrier"> <path id="Path" d="M0,0H14V2H12v8h2v2h2v2h2v4H16v2H14v2H12v2H10v4H4v2h6V28h2V26h2V24h2V22h2v4h2v2h6v2H24v2H0Z" fill="#ffffff"/> <path id="Path-2" data-name="Path" d="M0,0H2V2H0Z" transform="translate(14)" fill="#1a1a1a"/> <path id="Path-3" data-name="Path" d="M2,0H6V2H4V4H6V8H2V6H0V2H2Z" transform="translate(14)" fill="#ffffff"/> <path id="Path-4" data-name="Path" d="M10,0h4V6h2v8H14v6H12v6h6v6H14V30h2V28H10V26H8V22H6v2H4v2H2v2H0V24H2V22H4V20H6V18H8V14H6V12H4V10H2V2H4V6H6V8h4V4H8V2h2Z" transform="translate(10)" fill="#1a1a1a"/> <path id="Path-5" data-name="Path" d="M2,0h8V32H6V26H0V20H2V14H4V6H2Z" transform="translate(22)" fill="#ffffff"/> <path id="Path-6" data-name="Path" d="M0,0H6V2H8V4H6V6H0Z" transform="translate(2 8)" fill="#1a1a1a"/> <path id="Path-7" data-name="Path" d="M0,0H2V2H0Z" transform="translate(4 10)" fill="#ffffff"/> <path id="Path-8" data-name="Path" d="M0,0H6V2H0Z" transform="translate(4 28)" fill="#1a1a1a"/> </g>
</svg>