<!DOCTYPE svg PUBLIC "-//W3C//DTD SVG 1.1//EN" "http://www.w3.org/Graphics/SVG/1.1/DTD/svg11.dtd">

<!-- Uploaded to: SVG Repo, www.svgrepo.com, Transformed by: SVG Repo Mixer Tools -->
<svg width="75px" height="75px" viewBox="0 0 32 32" id="beermug_Light" data-name="beermug/Light" xmlns="http://www.w3.org/2000/svg" fill="#000000">

<g id="SVGRepo_bgCarrier" stroke-width="0"/>

<g id="SVGRepo_tracerCarrier" stroke-linecap="round" stroke-linejoin="round"/>

<g id="SVGRepo_iconCarrier"> <path id="Path" d="M0,0H32V32H0Z" fill="none"/> <path id="Path-2" data-name="Path" d="M0,0H6V2H0Z" transform="translate(8 2)" fill="#1a1a1a"/> <path id="Path-3" data-name="Path" d="M0,0H4V2H0Z" transform="translate(4 4)" fill="#1a1a1a"/> <path id="Path-4" data-name="Path" d="M4,0h6V2h2V4h2V2h4V8H16V6H12V8H10v4H8V10H6V8H4V6H0V2H4Z" transform="translate(4 4)" fill="none"/> <path id="Path-5" data-name="Path" d="M0,0H2V2H0Z" transform="translate(14 4)" fill="#1a1a1a"/> <path id="Path-6" data-name="Path" d="M0,0H4V2H0Z" transform="translate(18 4)" fill="#1a1a1a"/> <path id="Path-7" data-name="Path" d="M0,0H2V4H0Z" transform="translate(2 6)" fill="#1a1a1a"/> <path id="Path-8" data-name="Path" d="M0,0H4V2H0Z" transform="translate(8 6)" fill="#1a1a1a"/> <path id="Path-9" data-name="Path" d="M0,0H2V2H0Z" transform="translate(16 6)" fill="#1a1a1a"/> <path id="Path-10" data-name="Path" d="M2,0H4V4H8V6h2V16H8v2H4v4H0V20H2V8H0V6H2Z" transform="translate(20 6)" fill="#1a1a1a"/> <path id="Path-11" data-name="Path" d="M0,0H4V2H2V16H4v2H0Z" transform="translate(4 10)" fill="#1a1a1a"/> <path id="Path-12" data-name="Path" d="M0,0H4V2H0Z" transform="translate(16 10)" fill="#1a1a1a"/> <path id="Path-13" data-name="Path" d="M0,0H2V2H4V4H6V6H8V4h2V0h4V2h2V14H14v2H2V14H0Z" transform="translate(6 12)" fill="none"/> <path id="Path-14" data-name="Path" d="M0,0H2V2H0Z" transform="translate(8 12)" fill="#1a1a1a"/> <path id="Path-15" data-name="Path" d="M0,0H2V4H0Z" transform="translate(14 12)" fill="#1a1a1a"/> <path id="Path-16" data-name="Path" d="M0,0H2V2H0Z" transform="translate(10 14)" fill="#1a1a1a"/> <path id="Path-17" data-name="Path" d="M0,0H4V6H0Z" transform="translate(24 14)" fill="none"/> <path id="Path-18" data-name="Path" d="M0,0H2V2H0Z" transform="translate(12 16)" fill="#1a1a1a"/> <path id="Path-19" data-name="Path" d="M0,0H12V2H0Z" transform="translate(8 28)" fill="#1a1a1a"/> </g>

</svg>