<!DOCTYPE svg PUBLIC "-//W3C//DTD SVG 1.1//EN" "http://www.w3.org/Graphics/SVG/1.1/DTD/svg11.dtd">
<!-- Uploaded to: SVG Repo, www.svgrepo.com, Transformed by: SVG Repo Mixer Tools -->
<svg width="75px" height="75px" viewBox="0 0 32 32" id="heavyexclamationmarksymbol_Light" data-name="heavyexclamationmarksymbol/Light" xmlns="http://www.w3.org/2000/svg" fill="#000000">
<g id="SVGRepo_bgCarrier" stroke-width="0"/>
<g id="SVGRepo_tracerCarrier" stroke-linecap="round" stroke-linejoin="round"/>
<g id="SVGRepo_iconCarrier"> <path id="Path" d="M0,0H12V2H10V4H8v8h2v4h2v2h2v2h2V18h2V16h2V12h2V4H20V2H18V0H32V32H18V30h2V24H18V22H12v2H10v6h2v2H0Z" fill="#ffffff"/> <path id="Path-2" data-name="Path" d="M0,0H6V2H8V4h2v8H8v4H6v2H4v2H2V18H0V16H2V12H0V4H2V2H0Z" transform="translate(12)" fill="#1a1a1a"/> <path id="Path-3" data-name="Path" d="M0,0H2V2H0Z" transform="translate(10 2)" fill="#1a1a1a"/> <path id="Path-4" data-name="Path" d="M0,0H2V2H0Z" transform="translate(12 2)" fill="#ffffff"/> <path id="Path-5" data-name="Path" d="M0,0H2V8H0Z" transform="translate(8 4)" fill="#1a1a1a"/> <path id="Path-6" data-name="Path" d="M0,0H2V8H0Z" transform="translate(10 4)" fill="#ffffff"/> <path id="Path-7" data-name="Path" d="M0,0H2V4H0Z" transform="translate(10 12)" fill="#1a1a1a"/> <path id="Path-8" data-name="Path" d="M0,0H2V4H0Z" transform="translate(12 12)" fill="#ffffff"/> <path id="Path-9" data-name="Path" d="M0,0H6V2H8V8H6v2H0V8H4V6H2V2H0Z" transform="translate(12 22)" fill="#1a1a1a"/> <path id="Path-10" data-name="Path" d="M0,0H2V6H0Z" transform="translate(10 24)" fill="#1a1a1a"/> <path id="Path-11" data-name="Path" d="M0,0H2V4H4V6H0Z" transform="translate(12 24)" fill="#ffffff"/> </g>
</svg>