<!DOCTYPE svg PUBLIC "-//W3C//DTD SVG 1.1//EN" "http://www.w3.org/Graphics/SVG/1.1/DTD/svg11.dtd">
<!-- Uploaded to: SVG Repo, www.svgrepo.com, Transformed by: SVG Repo Mixer Tools -->
<svg width="75px" height="75px" viewBox="0 0 32 32" id="brokenheart_Light" data-name="brokenheart/Light" xmlns="http://www.w3.org/2000/svg" fill="#000000">
<g id="SVGRepo_bgCarrier" stroke-width="0"/>
<g id="SVGRepo_tracerCarrier" stroke-linecap="round" stroke-linejoin="round"/>
<g id="SVGRepo_iconCarrier"> <path id="Path" d="M0,0H32V32H0Z" fill="#ffffff"/> <path id="Path-2" data-name="Path" d="M6,0h4V2h2V4h2v8H12v2H10v4h4v2h2v4H14v4H12V26H10V24H8V22H6V20H4V18H2V14H0V6H2V4H4V2H6Z" transform="translate(2 2)" fill="#1a1a1a"/> <path id="Path-3" data-name="Path" d="M4,0H8V2h2V4h2V6h2v8H12v4H10v4H8v2H6v2H4v2H2V24H4V18H2V16H0V14H2V12H4V8H2V2H4Z" transform="translate(16 2)" fill="#1a1a1a"/> </g>
</svg>