<!DOCTYPE svg PUBLIC "-//W3C//DTD SVG 1.1//EN" "http://www.w3.org/Graphics/SVG/1.1/DTD/svg11.dtd">
<!-- Uploaded to: SVG Repo, www.svgrepo.com, Transformed by: SVG Repo Mixer Tools -->
<svg width="75px" height="75px" viewBox="0 0 32 32" id="poo_Light" data-name="poo/Light" xmlns="http://www.w3.org/2000/svg" fill="#000000">
<g id="SVGRepo_bgCarrier" stroke-width="0"/>
<g id="SVGRepo_tracerCarrier" stroke-linecap="round" stroke-linejoin="round"/>
<g id="SVGRepo_iconCarrier"> <path id="Path" d="M0,0H2V2H0Z" fill="#1a1a1a"/> <path id="Path-2" data-name="Path" d="M2,0H6V2H8V6H6V8H8V6h2V2H8V0H22V4h2V8h2V4H24V0h8V32H24V30h4V28h2V22H28V20H24V18h2V14H24V12H22v2H20V8H18V6H16V4H14V2H12V8H10v2H8v2h2v2H6v2H4v4H6v2H2v2H0V14H2V10H4V8H2V4H4V2H2Z" fill="#ffffff"/> <path id="Path-3" data-name="Path" d="M0,0H2V2H0Z" transform="translate(6)" fill="#1a1a1a"/> <path id="Path-4" data-name="Path" d="M0,0H2V4H0Z" transform="translate(22)" fill="#1a1a1a"/> <path id="Path-5" data-name="Path" d="M0,0H2V2H0Z" transform="translate(0 2)" fill="#ffffff"/> <path id="Path-6" data-name="Path" d="M0,0H2V2H0Z" transform="translate(2 2)" fill="#1a1a1a"/> <path id="Path-7" data-name="Path" d="M0,0H2V4H0Z" transform="translate(8 2)" fill="#1a1a1a"/> <path id="Path-8" data-name="Path" d="M12,0h2V2h2V4h2V6h2v6h2V10h2v2h2v4H24v2h4v2h2v6H28v2H24v2H6V28H2V26H0V22H2V20H6V18H4V14H6V12h4V10H8V8h2V6h2Z" transform="translate(0 2)" fill="#1a1a1a"/> <path id="Path-9" data-name="Path" d="M0,0H2V4H0Z" transform="translate(0 4)" fill="#1a1a1a"/> <path id="Path-10" data-name="Path" d="M0,0H2V4H0Z" transform="translate(24 4)" fill="#1a1a1a"/> <path id="Path-11" data-name="Path" d="M0,0H2V2H0Z" transform="translate(6 6)" fill="#1a1a1a"/> <path id="Path-12" data-name="Path" d="M0,0H2V4H0Z" transform="translate(28 6)" fill="#1a1a1a"/> <path id="Path-13" data-name="Path" d="M0,0H2V2H0Z" transform="translate(0 8)" fill="#ffffff"/> <path id="Path-14" data-name="Path" d="M0,0H2V2H0Z" transform="translate(2 8)" fill="#1a1a1a"/> <path id="Path-15" data-name="Path" d="M0,0H2V4H0Z" transform="translate(0 10)" fill="#1a1a1a"/> <path id="Path-16" data-name="Path" d="M0,0H2V2H0Z" transform="translate(26 10)" fill="#1a1a1a"/> <path id="Path-17" data-name="Path" d="M0,0H2V2H0Z" transform="translate(28 12)" fill="#1a1a1a"/> <path id="Path-18" data-name="Path" d="M0,0H2V2H0Z" transform="translate(10 18)" fill="#ffffff"/> <path id="Path-19" data-name="Path" d="M0,0H2V2H0Z" transform="translate(16 18)" fill="#ffffff"/> <path id="Path-20" data-name="Path" d="M0,0H2V2H0Z" transform="translate(8 24)" fill="#ffffff"/> <path id="Path-21" data-name="Path" d="M0,0H2V2H0Z" transform="translate(18 24)" fill="#ffffff"/> <path id="Path-22" data-name="Path" d="M0,0H8V2H0Z" transform="translate(10 26)" fill="#ffffff"/> <path id="Path-23" data-name="Path" d="M0,0H2V2H6V4H0Z" transform="translate(0 28)" fill="#ffffff"/> </g>
</svg>