<!DOCTYPE svg PUBLIC "-//W3C//DTD SVG 1.1//EN" "http://www.w3.org/Graphics/SVG/1.1/DTD/svg11.dtd">
<!-- Uploaded to: SVG Repo, www.svgrepo.com, Transformed by: SVG Repo Mixer Tools -->
<svg width="75px" height="75px" viewBox="0 0 32 32" id="saxophone_Light" data-name="saxophone/Light" xmlns="http://www.w3.org/2000/svg" fill="#000000">
<g id="SVGRepo_bgCarrier" stroke-width="0"/>
<g id="SVGRepo_tracerCarrier" stroke-linecap="round" stroke-linejoin="round"/>
<g id="SVGRepo_iconCarrier"> <path id="Path" d="M0,0H12V2H10V12h2v2H4v2H2v4H4v8H6v2H8v2H0Z" fill="#ffffff"/> <path id="Path-2" data-name="Path" d="M0,0H4V2H0Z" transform="translate(12)" fill="#1a1a1a"/> <path id="Path-3" data-name="Path" d="M0,0H4V2H0Z" transform="translate(16)" fill="#ffffff"/> <path id="Path-4" data-name="Path" d="M0,0H10V2H8V4H4V2H0Z" transform="translate(20)" fill="#1a1a1a"/> <path id="Path-5" data-name="Path" d="M14,0h2V32H0V30H2V28H4V20H2V8H0V4H4V2H8V4h4V2h2Z" transform="translate(16)" fill="#ffffff"/> <path id="Path-6" data-name="Path" d="M0,0H2V10H0Z" transform="translate(10 2)" fill="#1a1a1a"/> <path id="Path-7" data-name="Path" d="M6,0h4V2H8V6h2V18h2v8H10v2H2V26H0V20H4V18H6v6H8V10H6Z" transform="translate(6 2)" fill="#ffffff"/> <path id="Path-8" data-name="Path" d="M0,0H4V2H0Z" transform="translate(16 2)" fill="#1a1a1a"/> <path id="Path-9" data-name="Path" d="M0,0H2V4H0Z" transform="translate(14 4)" fill="#1a1a1a"/> <path id="Path-10" data-name="Path" d="M0,0H2V12H0Z" transform="translate(16 8)" fill="#1a1a1a"/> <path id="Path-11" data-name="Path" d="M8,0h2V14H8V8H6V6H8V4H0V2H8Z" transform="translate(4 12)" fill="#1a1a1a"/> <path id="Path-12" data-name="Path" d="M0,0H2V2H4V4H8V6H4v6H2V4H0Z" transform="translate(2 16)" fill="#1a1a1a"/> <path id="Path-13" data-name="Path" d="M0,0H8V2H6V4H2V2H0Z" transform="translate(4 16)" fill="#ffffff"/> <path id="Path-14" data-name="Path" d="M0,0H2V8H0Z" transform="translate(18 20)" fill="#1a1a1a"/> <path id="Path-15" data-name="Path" d="M0,0H2V2H0Z" transform="translate(6 28)" fill="#1a1a1a"/> <path id="Path-16" data-name="Path" d="M0,0H2V2H0Z" transform="translate(16 28)" fill="#1a1a1a"/> <path id="Path-17" data-name="Path" d="M0,0H8V2H0Z" transform="translate(8 30)" fill="#1a1a1a"/> </g>
</svg>