<!DOCTYPE svg PUBLIC "-//W3C//DTD SVG 1.1//EN" "http://www.w3.org/Graphics/SVG/1.1/DTD/svg11.dtd">
<!-- Uploaded to: SVG Repo, www.svgrepo.com, Transformed by: SVG Repo Mixer Tools -->
<svg width="75px" height="75px" viewBox="0 0 32 32" id="surfer_Light" data-name="surfer/Light" xmlns="http://www.w3.org/2000/svg" fill="#000000">
<g id="SVGRepo_bgCarrier" stroke-width="0"/>
<g id="SVGRepo_tracerCarrier" stroke-linecap="round" stroke-linejoin="round"/>
<g id="SVGRepo_iconCarrier"> <path id="Path" d="M0,0H14V2H12V6h2V8H12v2H10v2H8v2H6v2H4v2H0Z" fill="#ffffff"/> <path id="Path-2" data-name="Path" d="M6,0h6V2H10V4h6V6H14V8H12v2H10v2H8v2h2v2h2v2H6v4H4V16H2V14H0V12H2V10H4V8H6V6H8V2H6Z" transform="translate(8)" fill="#1a1a1a"/> <path id="Path-3" data-name="Path" d="M2,0h8V2H6V4H0V2H2Z" transform="translate(18)" fill="#ffffff"/> <path id="Path-4" data-name="Path" d="M0,0H2V2H0Z" transform="translate(28)" fill="#1a1a1a"/> <path id="Path-5" data-name="Path" d="M14,0h2V32H0V30H6V28h4V26h2V24h2V22H12V20H6V18H4V16H2V14H0V12H2V10H4V8H6V6H8V4h4V2h2Z" transform="translate(16)" fill="#ffffff"/> <path id="Path-6" data-name="Path" d="M0,0H2V4H0Z" transform="translate(12 2)" fill="#1a1a1a"/> <path id="Path-7" data-name="Path" d="M0,0H2V4H0Z" transform="translate(14 2)" fill="#ffffff"/> <path id="Path-8" data-name="Path" d="M0,0H4V2H0Z" transform="translate(24 2)" fill="#1a1a1a"/> <path id="Path-9" data-name="Path" d="M0,0H2V2H0Z" transform="translate(6 14)" fill="#1a1a1a"/> <path id="Path-10" data-name="Path" d="M8,0h2V2h2V8H10v2H8v2H4v2H2v2H4v2H0V6H4V4H6V2H8Z" transform="translate(0 14)" fill="#ffffff"/> <path id="Path-11" data-name="Path" d="M0,0H2V2H0Z" transform="translate(4 16)" fill="#1a1a1a"/> <path id="Path-12" data-name="Path" d="M0,0H4V2H0Z" transform="translate(0 18)" fill="#1a1a1a"/> <path id="Path-13" data-name="Path" d="M2,0H8V4H4V6H0V4H2Z" transform="translate(12 18)" fill="#ffffff"/> <path id="Path-14" data-name="Path" d="M0,0H2V2H8V4H0Z" transform="translate(20 18)" fill="#1a1a1a"/> <path id="Path-15" data-name="Path" d="M6,0H8V2h4V4H6V6H0V4H4V2H6Z" transform="translate(4 22)" fill="#1a1a1a"/> <path id="Path-16" data-name="Path" d="M0,0H4V2H0Z" transform="translate(16 22)" fill="#1a1a1a"/> <path id="Path-17" data-name="Path" d="M0,0H8V2H6V4H2V2H0Z" transform="translate(20 22)" fill="#ffffff"/> <path id="Path-18" data-name="Path" d="M0,0H2V2H0Z" transform="translate(28 22)" fill="#1a1a1a"/> <path id="Path-19" data-name="Path" d="M6,0h4V2h2V4H6V6H2V4H0V2H6Z" transform="translate(10 24)" fill="#ffffff"/> <path id="Path-20" data-name="Path" d="M0,0H2V2H0Z" transform="translate(20 24)" fill="#1a1a1a"/> <path id="Path-21" data-name="Path" d="M0,0H2V2H0Z" transform="translate(26 24)" fill="#1a1a1a"/> <path id="Path-22" data-name="Path" d="M0,0H4V2H0Z" transform="translate(22 26)" fill="#1a1a1a"/> <path id="Path-23" data-name="Path" d="M0,0H2V2H0Z" transform="translate(2 28)" fill="#1a1a1a"/> <path id="Path-24" data-name="Path" d="M0,0H6V2H0Z" transform="translate(4 28)" fill="#ffffff"/> <path id="Path-25" data-name="Path" d="M6,0H8V2h4V4H0V2H6Z" transform="translate(4 28)" fill="#1a1a1a"/> <path id="Path-26" data-name="Path" d="M0,0H6V2H0Z" transform="translate(16 28)" fill="#1a1a1a"/> </g>
</svg>