<!DOCTYPE svg PUBLIC "-//W3C//DTD SVG 1.1//EN" "http://www.w3.org/Graphics/SVG/1.1/DTD/svg11.dtd">
<!-- Uploaded to: SVG Repo, www.svgrepo.com, Transformed by: SVG Repo Mixer Tools -->
<svg width="75px" height="75px" viewBox="0 0 32 32" id="trumpet_Light" data-name="trumpet/Light" xmlns="http://www.w3.org/2000/svg" fill="#000000">
<g id="SVGRepo_bgCarrier" stroke-width="0"/>
<g id="SVGRepo_tracerCarrier" stroke-linecap="round" stroke-linejoin="round"/>
<g id="SVGRepo_iconCarrier"> <path id="Path" d="M0,0H32V8H30v4H28v2H20V12H18v2H16V12H14v2H12V12H10v2H2V12H0Z" fill="#ffffff"/> <path id="Path-2" data-name="Path" d="M30,0h2V16H30V12H28V10H24v4H8V12H6V10H4V8H2v4H0V4H2V6h8V4h2V6h2V4h2V6h2V4h2V6h8V4h2Z" transform="translate(0 8)" fill="#1a1a1a"/> <path id="Path-3" data-name="Path" d="M2,0H4V2H6V4H8V6H24V2h4V4h2V8h2v8H0V4H2Z" transform="translate(0 16)" fill="#ffffff"/> <path id="Path-4" data-name="Path" d="M10,0h2V2h2V4H0V2H10Z" transform="translate(8 16)" fill="#ffffff"/> <path id="Path-5" data-name="Path" d="M0,0H2V2H0Z" transform="translate(28 16)" fill="#ffffff"/> </g>
</svg>